<svg data-v-6805eed4="" version="1.0" xmlns="http://www.w3.org/2000/svg" xmlns:xlink="http://www.w3.org/1999/xlink" width="100%" height="100%" viewBox="0 0 340.000000 250.000000" preserveAspectRatio="xMidYMid meet" color-interpolation-filters="sRGB" style="margin: auto;"> <rect data-v-6805eed4="" x="0" y="0" width="100%" height="100%" fill="#ffffff" fill-opacity="1" class="background"></rect> <rect data-v-6805eed4="" x="0" y="0" width="100%" height="100%" fill="url(#watermark)" fill-opacity="1" class="watermarklayer"></rect> <g data-v-6805eed4="" fill="#ff0844" class="basesvg" transform="translate(117.96999740600586,102.25)"><g data-gra="path-name" fill-rule="" class="tp-name"><g transform="scale(1)"><g><path d="M13.26-38.48L13.26-45.5 4.42-45.5 4.42-38.48ZM4.42 0L13.2 0 13.2-32.5 4.42-32.5ZM55.64-36.98L55.64-45.5 22.1-45.5 22.1-36.98ZM22.1 0L31.01 0 31.01-18.46 53.37-18.46 53.37-26.32 22.1-26.32ZM69.94-13.59L69.94-45.5 61.1-45.5 61.1-13.59ZM61.1 0L94.19 0 94.19-8.58 61.1-8.58ZM108.48-38.48L108.48-45.5 99.64-45.5 99.64-38.48ZM99.64 0L108.42 0 108.42-32.5 99.64-32.5Z" transform="translate(-4.420000076293945, 45.5)"></path></g> <!----> <!----> <!----> <!----> <!----> <!----> <!----></g></g> <!----></g><defs v-gra="od"></defs></svg>